<?xml version="1.0" encoding="utf-8"?>
<!-- Generator: Adobe Illustrator 23.0.1, SVG Export Plug-In . SVG Version: 6.00 Build 0)  -->
<svg version="1.1" id="Layer_1" xmlns="http://www.w3.org/2000/svg" xmlns:xlink="http://www.w3.org/1999/xlink" x="0px" y="0px"
	 viewBox="0 0 400 400" style="enable-background:new 0 0 400 400;" xml:space="preserve">
<style type="text/css">
	.st0{fill:#FFFFFF;}
	.st1{fill:none;}
	.st2{font-family:'Maratre';}
	.st3{font-size:100px;}
</style>
<g>
	<path class="st0" d="M204.45,302.11c-6.96,0-13.72-1.5-20.08-4.46l-97.63-45.42c-11.55-5.37-20.32-14.93-24.69-26.9
		c-4.37-11.97-3.82-24.92,1.56-36.48l45.42-97.63c7.8-16.76,24.79-27.59,43.29-27.59c6.96,0,13.72,1.5,20.08,4.46l97.63,45.42
		c11.55,5.37,20.32,14.93,24.69,26.9c4.37,11.97,3.81,24.92-1.56,36.48l-45.42,97.63C239.94,291.28,222.94,302.11,204.45,302.11z"/>
	<path d="M152.31,70.64c5.93,0,11.69,1.28,17.13,3.81l97.63,45.42c9.86,4.59,17.34,12.74,21.07,22.95
		c3.73,10.21,3.26,21.27-1.33,31.12l-45.42,97.63c-6.65,14.3-21.15,23.55-36.94,23.55c-5.93,0-11.7-1.28-17.13-3.81l-97.63-45.42
		c-9.86-4.59-17.34-12.74-21.07-22.95c-3.73-10.21-3.26-21.27,1.33-31.12l45.42-97.63C122.02,79.88,136.52,70.64,152.31,70.64
		L152.31,70.64 M152.3,56.64c-20.62,0-40.36,11.72-49.63,31.64l-45.42,97.63c-12.74,27.39-0.87,59.93,26.53,72.67L181.41,304
		c7.47,3.47,15.31,5.12,23.04,5.12c20.62,0,40.37-11.72,49.63-31.64l45.42-97.63c12.74-27.39,0.87-59.93-26.53-72.67l-97.63-45.42
		C167.87,58.28,160.03,56.64,152.3,56.64L152.3,56.64z"/>
</g>
<rect x="91" y="146" class="st1" width="143" height="157"/>
<text transform="matrix(1 0 0 1 91 193.0991)" class="st2 st3">M</text>
<rect x="173" y="200" class="st1" width="143" height="157"/>
<text transform="matrix(1 0 0 1 173 247.0991)" class="st2 st3">C</text>
</svg>
